Coordinates
nRows=110
nColumns=2
inDegrees=yes
endheader
time	ankle_angle_r	
3.75	 18.716721	
3.8125	 18.768311	
3.875	 18.707275	
3.9375	 18.722534	
4	 18.739973	
4.0625	 18.668221	
4.125	 18.722534	
4.1875	 18.686022	
4.25	 18.691290	
4.3125	 18.730345	
4.375	 18.714905	
4.4375	 18.753052	
4.5	 18.737066	
4.5625	 18.692017	
4.625	 18.705822	
4.6875	 18.676758	
4.75	 18.659319	
4.8125	 18.744150	
4.875	 18.734886	
4.9375	 18.722534	
5	 18.750872	
5.0625	 18.646240	
5.125	 18.701826	
5.1875	 18.712543	
5.25	 18.722534	
5.3125	 18.799374	
5.375	 18.762497	
5.4375	 18.753052	
5.5	 18.779209	
5.5625	 18.711452	
5.625	 18.722534	
5.6875	 18.772125	
5.75	 18.749418	
5.8125	 18.764858	
5.875	 18.795559	
5.9375	 18.768311	
6	 18.798828	
6.0625	 18.755777	
6.125	 18.722534	
6.1875	 18.765949	
6.25	 18.748692	
6.3125	 18.751053	
6.375	 18.783569	
6.4375	 18.739428	
6.5	 18.782116	
6.5625	 18.769583	
6.625	 18.737793	
6.6875	 18.724350	
6.75	 18.722534	
6.8125	 18.736704	
6.875	 18.813725	
6.9375	 18.753052	
7	 18.783569	
7.0625	 18.768311	
7.125	 18.722172	
7.1875	 18.752506	
7.25	 18.721081	
7.3125	 18.724350	
7.375	 18.769400	
7.4375	 18.768311	
7.5	 18.782116	
7.5625	 18.810818	
7.625	 18.707275	
7.6875	 18.766312	
7.75	 18.794468	
7.8125	 18.753052	
7.875	 18.839518	
7.9375	 18.823896	
8	 18.795921	
8.0625	 18.832434	
8.125	 18.768311	
8.1875	 18.787022	
8.25	 18.810453	
8.3125	 18.760681	
8.375	 18.783569	
8.4375	 18.768311	
8.5	 18.772671	
8.5625	 18.777393	
8.625	 18.737793	
8.6875	 18.717630	
8.75	 18.763224	
8.8125	 18.727257	
8.875	 18.763950	
8.9375	 18.793198	
9	 18.734159	
9.0625	 18.768311	
9.125	 18.743969	
9.1875	 18.728891	
9.25	 18.768311	
9.3125	 18.722534	
9.375	 18.744696	
9.4375	 18.805912	
9.5	 18.753052	
9.5625	 18.783569	
9.625	 18.806458	
9.6875	 18.760500	
9.75	 18.776302	
9.8125	 18.737793	
9.875	 18.722534	
9.9375	 18.807365	
10	 18.753052	
10.0625	 18.783569	
10.125	 18.774487	
10.1875	 18.728529	
10.25	 18.756685	
10.3125	 18.762680	
10.375	 18.747602	
10.4375	 18.819355	
10.5	 18.809000	
10.5625	 18.804277	
